<?xml version="1.0" encoding="UTF-8" standalone="no"?>
<svg
   width="72.150002"
   height="48.415329"
   version="1.1"
   id="svg2"
   xmlns="http://www.w3.org/2000/svg"
   xmlns:svg="http://www.w3.org/2000/svg">
  <defs
     id="defs2" />
  <path
     d="m 53.375,7.2763281 a 0.74,0.74 0 0 0 -0.974,-0.426 0.72,0.72 0 0 0 -0.446,0.67 c 0,0.08 0.02,0.183 0.04,0.264 a 16.98,16.98 0 0 1 1.076,5.9869999 c 0,8.625 -6.433,15.75 -14.754,16.845 v -7.935 a 12.21,12.21 0 0 0 1.482,-0.386 v 6.657 c 6.84,-1.664 11.913,-7.834 11.913,-15.18 0,-5.8859999 -3.267,-11.0199999 -8.077,-13.67999986 a 0.73,0.73 0 0 0 -1.015,0.325 c -0.06,0.1 -0.08,0.223 -0.08,0.325 a 0.75,0.75 0 0 0 0.386,0.64899996 c 4.363,2.415 7.306,7.063 7.306,12.3799999 0,5.987 -3.714,11.1 -8.97,13.17 v -5.906 c 0.913,-0.284 1.603,-1.137 1.603,-2.15 0,-0.832 -0.426,-1.563 -1.116,-1.948 0.528,-5.094 2.862,-3.755 2.862,-5.378 v -0.956 c 0,-2.4349999 -5.642,-10.36999986 -8.28,-10.55299986 h -0.487 c -2.638,0.183 -8.28,8.11799996 -8.28,10.55299986 v 0.954 c 0,1.624 2.334,0.284 2.862,5.378 -0.7,0.386 -1.116,1.116 -1.116,1.948 0,1.015 0.7,1.867 1.603,2.15 v 5.906 c -5.256,-2.07 -8.97,-7.184 -8.97,-13.17 0,-5.3379999 2.943,-9.9649999 7.306,-12.3799999 0.345,-0.183 0.467,-0.59999996 0.304,-0.97399996 -0.122,-0.264 -0.386,-0.406 -0.67,-0.406 -0.122,0 -0.244,0.02 -0.345,0.1 -4.83,2.65999996 -8.077,7.77299996 -8.077,13.67999986 0,7.347 5.074,13.516 11.913,15.18 v -6.666 c 0.487,0.162 0.974,0.304 1.482,0.386 v 7.935 c -8.34,-1.096 -14.754,-8.22 -14.754,-16.845 a 17.21,17.21 0 0 1 1.076,-5.9869999 c 0.142,-0.365 -0.04,-0.792 -0.406,-0.934 a 0.72,0.72 0 0 0 -0.284,-0.06 0.74,0.74 0 0 0 -0.7,0.487 c -0.75,2.03 -1.177,4.2199999 -1.177,6.4939999 0,9.945 7.854,18.062 17.717,18.448 v -9.344 c 0.264,0.02 0.75,0.02 0.75,0.02 0,0 0.487,0 0.75,-0.02 v 9.356 c 9.863,-0.386 17.717,-8.504 17.717,-18.448 A 19.21,19.21 0 0 0 53.368,7.2763281 Z m -13.9,10.5329999 c 0.284,-0.284 0.65,-0.446 1.076,-0.446 0.426,0 0.792,0.162 1.076,0.446 0.284,0.284 0.446,0.65 0.446,1.076 0,0.426 -0.162,0.792 -0.446,1.076 -0.284,0.284 -0.65,0.446 -1.076,0.446 -0.426,0 -0.792,-0.162 -1.076,-0.446 -0.284,-0.284 -0.446,-0.65 -0.446,-1.076 a 1.72,1.72 0 0 1 0.446,-1.076 z m -6.8,2.15 c -0.284,0.284 -0.65,0.446 -1.076,0.446 -0.426,0 -0.792,-0.162 -1.076,-0.446 -0.284,-0.284 -0.446,-0.65 -0.446,-1.076 0,-0.426 0.162,-0.792 0.446,-1.076 0.284,-0.284 0.65,-0.446 1.076,-0.446 0.426,0 0.792,0.162 1.076,0.446 0.284,0.284 0.446,0.65 0.446,1.076 a 1.54,1.54 0 0 1 -0.446,1.076 z"
     fill="#149287"
     id="path1" />
  <path
     d="m 8.599,40.589328 c -0.235,-0.352 -0.47,-0.664 -0.82,-0.9 a 3.33,3.33 0 0 0 -2.1,-0.704 c -1.76,0 -3.518,1.33 -3.518,3.713 0,2.462 1.798,3.752 3.518,3.752 0.86,0 1.602,-0.235 2.15,-0.664 0.586,-0.43 0.977,-1.016 1.133,-1.642 H 4.925 v -1.76 h 6.605 c 0.04,0.704 -0.078,1.837 -0.47,2.736 -1.016,2.267 -3.36,3.283 -5.315,3.283 -3.244,0 -5.745,-2.5 -5.745,-5.706 0,-3.244 2.58,-5.628 5.784,-5.628 2.462,0 4.612,1.563 5.355,3.557 h -2.54 z m 4.494,-3.322 h 1.915 v 1.72 h -1.915 z m 0,2.814 h 1.915 v 8.1 h -1.915 z m 4.495,1.485 h -1.33 v -1.485 h 1.33 v -2.814 h 1.915 v 2.814 h 1.368 v 1.485 h -1.368 v 6.605 h -1.915 z m 4.925,-4.3 h 2.2 v 5.042 l 3.596,-5.042 h 2.306 l -3.948,5.433 4.338,5.472 h -2.697 l -3.635,-4.886 v 4.886 h -2.198 v -10.904 z m 9.536,2.815 h 1.837 v 1.055 c 0.352,-0.704 1.016,-1.3 2.228,-1.33 v 1.954 h -0.078 c -1.368,0 -2.032,0.625 -2.032,2.032 v 4.377 h -1.915 v -8.1 z m 13.25,8.1 h -1.924 v -1.173 c -0.508,0.938 -1.602,1.407 -2.736,1.407 -2.58,0 -4.104,-2.032 -4.104,-4.3 0,-2.54 1.837,-4.3 4.104,-4.3 1.485,0 2.384,0.782 2.736,1.446 v -1.173 h 1.915 z m -6.84,-4.026 c 0,1.016 0.704,2.462 2.462,2.462 1.094,0 1.798,-0.547 2.15,-1.3 0.195,-0.352 0.274,-0.743 0.313,-1.133 a 2.79,2.79 0 0 0 -0.235,-1.133 c -0.352,-0.782 -1.094,-1.446 -2.267,-1.446 -1.524,0 -2.423,1.3 -2.423,2.54 z m 8.95,-6.888 h 1.915 v 5.902 l 2.775,-3.088 h 2.306 l -3.36,3.557 3.36,4.534 h -2.228 l -2.902,-4.026 v 4.026 H 47.36 v -10.905 z m 10.396,8.95 c 1.016,0.82 2.306,0.47 3.05,-0.313 0.664,-0.704 0.782,-1.446 0.547,-2.15 l 1.368,-1.446 c 0.4,0.9 0.47,1.798 0.352,2.58 -0.117,0.82 -0.508,1.563 -1.094,2.15 -1.72,1.798 -4.417,1.72 -6.058,0.156 -1.68,-1.563 -1.915,-4.26 -0.235,-6.058 0.82,-0.86 1.876,-1.33 2.97,-1.33 1.407,0 2.58,0.586 3.518,1.68 z m 2.07,-4.338 c -0.625,-0.47 -1.954,-0.625 -2.892,0.43 -0.977,1.055 -0.782,2.306 -0.235,2.93 z m 4.85,-1.798 h 1.798 v 1.094 c 0.352,-0.625 1.094,-1.33 2.5,-1.33 2.62,0 3.127,2.032 3.127,3.48 v 4.886 h -1.915 v -4.378 c 0,-1.212 -0.4,-2.15 -1.76,-2.15 -1.36,0 -1.837,0.938 -1.837,2.07 v 4.456 h -1.913 z"
     id="path2" />
</svg>
